<svg xmlns="http://www.w3.org/2000/svg" width="133.906" height="133.904" viewBox="0 0 133.906 133.904"><defs><style>.a{fill:#625a95;}.b{fill:#ffb24d;}</style></defs><g transform="translate(-120.547 -255.965)"><g transform="translate(120.547 255.961)"><path class="a" d="M48.122,96.247h-1.98a4.27,4.27,0,0,1-4.1-2.927,4.182,4.182,0,0,1,2.49-5.162L75.917,76.086a4.187,4.187,0,0,0,2.354-5.527C65.888,40.884,62.79,4.281,62.755,3.851A4.188,4.188,0,0,0,55.1,1.865l-6.049,9.073-9.07-6.047A4.186,4.186,0,0,0,33.6,7.358L30.856,18.334,23.245,13.26a4.186,4.186,0,0,0-6.381,2.466L14.118,26.7,6.507,21.629A4.187,4.187,0,0,0,.013,25.435a285.574,285.574,0,0,0,10,53.18C14.69,94.267,20.47,106.8,27.192,115.87a23.879,23.879,0,0,0,19.249,9.669H47.9a14.647,14.647,0,1,0,.222-29.291Zm-26.9-44.476a4.186,4.186,0,0,1,2.333-5.44l20.923-8.369a4.185,4.185,0,1,1,3.107,7.773C24.925,54.8,26.262,54.4,25.107,54.4A4.188,4.188,0,0,1,21.221,51.771Zm9.624,19.071a4.185,4.185,0,0,1-3.107-7.773L48.661,54.7a4.185,4.185,0,0,1,3.107,7.773Zm82.137.3c-1.093,0,1.069-.708-29.184,10.927-.037-.061-20.239,7.738-20.205,7.725A2.093,2.093,0,0,0,63,93.347a23.011,23.011,0,0,1-4.975,38.318,1.18,1.18,0,0,0,.5,2.243,20.952,20.952,0,0,0,9.725-2.364l45.122-18.579a4.158,4.158,0,0,0,2.27-.934C127.87,107,127.3,107.368,128.127,106.5,140.768,93.246,131.3,71.14,112.982,71.14Z" transform="translate(0 0)"/></g><g transform="translate(-26 41)"><circle class="b" cx="19.5" cy="19.5" r="19.5" transform="translate(241 259)"/><path class="a" d="M20.348,5.784,10.472,15.66,5.863,11.052,2.571,14.344l7.9,7.9L23.64,9.076Z" transform="translate(247.429 264.216)"/></g></g></svg>