<svg xmlns="http://www.w3.org/2000/svg" width="23.14" height="19.88" viewBox="0 0 23.14 19.88"><defs><style>.a{fill:#f5c150;}.b{fill:#605b90;}</style></defs><g transform="translate(-351.648 335.641)"><path class="a" d="M357.948-327.321v6.37a1,1,0,0,1-1,1h-.1a1,1,0,0,1-1-1v-6.37a1,1,0,0,1,1-1h.1A1,1,0,0,1,357.948-327.321Z"/><path class="a" d="M366.348-328.361a4.2,4.2,0,0,0-4.19,4.23h.01a4.2,4.2,0,0,0,4.2,4.18h.03a4.208,4.208,0,0,0,4.18-4.23A4.2,4.2,0,0,0,366.348-328.361Zm.02,6.33a2.1,2.1,0,0,1-2.11-2.1,2.1,2.1,0,0,1,.09-.61,2.115,2.115,0,0,1,2.64-1.39.983.983,0,0,0-.53.53,1.036,1.036,0,0,0,.53,1.38,1.051,1.051,0,0,0,1.39-.53,2.163,2.163,0,0,1,.09.62A2.1,2.1,0,0,1,366.368-322.031Z"/><path class="b" d="M372.688-332.5h-1.37l-.87-2.17a1.685,1.685,0,0,0-1.45-.97h-5.25a1.691,1.691,0,0,0-1.45.97l-.87,2.17h-7.68a2.1,2.1,0,0,0-2.1,2.09v12.55a2.1,2.1,0,0,0,2.1,2.1h18.94a2.113,2.113,0,0,0,2.1-2.1v-12.55A2.111,2.111,0,0,0,372.688-332.5Zm-.01,14.64h-18.93v-12.55h9.1l.53-1.31.73-1.82h4.48l.77,1.82.53,1.31h2.79Z"/><path class="a" d="M357.948-327.321v6.37a1,1,0,0,1-1,1h-.1a1,1,0,0,1-1-1v-6.37a1,1,0,0,1,1-1h.1A1,1,0,0,1,357.948-327.321Z"/><path class="a" d="M366.348-328.361a4.2,4.2,0,0,0-4.19,4.23h.01a4.2,4.2,0,0,0,4.2,4.18h.03a4.208,4.208,0,0,0,4.18-4.23A4.2,4.2,0,0,0,366.348-328.361Zm.02,6.33a2.1,2.1,0,0,1-2.11-2.1,2.1,2.1,0,0,1,.09-.61,2.115,2.115,0,0,1,2.64-1.39.983.983,0,0,0-.53.53,1.036,1.036,0,0,0,.53,1.38,1.051,1.051,0,0,0,1.39-.53,2.163,2.163,0,0,1,.09.62A2.1,2.1,0,0,1,366.368-322.031Z"/><path class="a" d="M366.348-328.361a4.2,4.2,0,0,0-4.19,4.23h.01a4.2,4.2,0,0,0,4.2,4.18h.03a4.208,4.208,0,0,0,4.18-4.23A4.2,4.2,0,0,0,366.348-328.361Zm.02,6.33a2.1,2.1,0,0,1-2.11-2.1,2.1,2.1,0,0,1,.09-.61,2.115,2.115,0,0,1,2.64-1.39.983.983,0,0,0-.53.53,1.036,1.036,0,0,0,.53,1.38,1.051,1.051,0,0,0,1.39-.53,2.163,2.163,0,0,1,.09.62A2.1,2.1,0,0,1,366.368-322.031Z"/><path class="a" d="M357.948-327.321v6.37a1,1,0,0,1-1,1h-.1a1,1,0,0,1-1-1v-6.37a1,1,0,0,1,1-1h.1A1,1,0,0,1,357.948-327.321Z"/></g></svg>