<svg xmlns="http://www.w3.org/2000/svg" width="43" height="43" viewBox="0 0 43 43"><defs><style>.a{fill:none;}.b{fill:#625a95;}</style></defs><g transform="translate(-166 -734)"><rect class="a" width="43" height="43" rx="5" transform="translate(166 734)"/><g transform="translate(746.521 1120.983)"><path class="b" d="M-558.334-365.128h-2.832a1.3,1.3,0,0,1-1.3-1.3v-4.52a1.3,1.3,0,0,1,1.3-1.3,1.3,1.3,0,0,1,1.3,1.3v3.219h1.531a1.3,1.3,0,0,1,1.3,1.3A1.3,1.3,0,0,1-558.334-365.128Z" transform="translate(2.304 1.305)"/><path class="b" d="M-555.485-369.215a3.337,3.337,0,0,1-3.334-3.333,3.339,3.339,0,0,1,3.334-3.335,3.339,3.339,0,0,1,3.334,3.335A3.337,3.337,0,0,1-555.485-369.215Zm0-4.066a.733.733,0,0,0-.732.734.732.732,0,0,0,.732.731.732.732,0,0,0,.732-.731A.733.733,0,0,0-555.485-373.281Z" transform="translate(3.401 0.212)"/><path class="b" d="M-558.862-354.058a11.278,11.278,0,0,1-11.264-11.266,11.277,11.277,0,0,1,11.264-11.264,1.3,1.3,0,0,1,1.3,1.3,1.3,1.3,0,0,1-1.3,1.3,8.672,8.672,0,0,0-8.662,8.662,8.673,8.673,0,0,0,8.662,8.665,8.673,8.673,0,0,0,8.663-8.665,1.3,1.3,0,0,1,1.3-1.3,1.3,1.3,0,0,1,1.3,1.3A11.278,11.278,0,0,1-558.862-354.058Z"/></g></g></svg>