<svg xmlns="http://www.w3.org/2000/svg" width="35.725" height="41.964" viewBox="0 0 35.725 41.964"><defs><style>.a{fill:#b6a9ed;}.b{fill:#65589c;}.c{fill:#0a3575;}.d{fill:#ffc12d;}.e{fill:#8779c3;}.f{fill:#72d1fb;}.g{fill:#07a9f0;}.h{fill:#fff5f5;}</style></defs><path class="a" d="M234.1,428.168v5.651q-.971.09-1.967.091A21.23,21.23,0,0,1,230,433.8v-5.635a1.229,1.229,0,0,1,1.229-1.229h1.639A1.229,1.229,0,0,1,234.1,428.168Z" transform="translate(-214.268 -391.947)"/><path class="b" d="M232.869,373.473h-1.639A1.229,1.229,0,0,1,230,372.244v-8.2a1.229,1.229,0,0,1,1.229-1.229h1.639a1.229,1.229,0,0,1,1.229,1.229v8.2A1.229,1.229,0,0,1,232.869,373.473Z" transform="translate(-214.268 -333.081)"/><path class="a" d="M59.909,35.279a1.229,1.229,0,0,1-.789,2.172H52.563a1.229,1.229,0,0,1-.752-2.2,17.863,17.863,0,1,1,8.1.03Z" transform="translate(-38.061 0)"/><path class="b" d="M101.153,47.913a15.18,15.18,0,1,1-15.18-15.18A15.18,15.18,0,0,1,101.153,47.913Z" transform="translate(-68.111 -30.05)"/><path class="c" d="M88.875,62.815a15.18,15.18,0,1,1,0-29.805,15.183,15.183,0,0,0,0,29.805Z" transform="translate(-68.111 -30.05)"/><path class="d" d="M119.883,114.835a3.9,3.9,0,0,1-3.142,5.8q-.492.036-.993.036t-.993-.036a3.9,3.9,0,0,1-3.142-5.8q.042-.072.086-.144l4.049-6.478,4.049,6.478Q119.842,114.763,119.883,114.835ZM110.624,98.8l-.02-.036a3.053,3.053,0,0,0-4.969-.536,13.516,13.516,0,0,0-2.112,3.21,3.058,3.058,0,0,0,2.494,4.363,4.786,4.786,0,0,0,.558.013l7.635-.267Zm17.35,2.637a13.518,13.518,0,0,0-2.112-3.21,3.053,3.053,0,0,0-4.969.536l-.02.036-3.586,6.746,7.635.267a4.806,4.806,0,0,0,.558-.013A3.058,3.058,0,0,0,127.973,101.44Z" transform="translate(-97.886 -89.225)"/><path class="e" d="M86.921,59.844H57.863q.389-.634.832-1.229h27.4Q86.531,59.21,86.921,59.844Zm1.248,8.3H56.615a.615.615,0,1,0,0,1.229H88.17a.615.615,0,1,0,0-1.229Zm-5.143-12.7H61.758a17.145,17.145,0,0,0-1.378,1.229H84.405A17.131,17.131,0,0,0,83.027,55.439ZM56.615,66.2H88.17a.615.615,0,1,0,0-1.229H56.615a.615.615,0,1,0,0,1.229Zm2.08,12.7h27.4q.442-.6.832-1.229H57.863Q58.253,78.3,58.695,78.9Zm3.063,3.176H83.027a17.146,17.146,0,0,0,1.378-1.229H60.379A17.114,17.114,0,0,0,61.758,82.076Zm-5.143-7.581a.612.612,0,0,0-.256.056q.216.6.475,1.174H87.951q.258-.576.475-1.174a.612.612,0,0,0-.256-.056ZM88.17,63.02a.612.612,0,0,0,.256-.056q-.216-.6-.475-1.174H56.834q-.258.576-.475,1.174a.612.612,0,0,0,.256.056Zm0,8.3H56.615a.615.615,0,1,0,0,1.229H88.17a.615.615,0,1,0,0-1.229Z" transform="translate(-54.53 -50.895)"/><path class="d" d="M209.844,167.258a4.525,4.525,0,1,1-4.525-4.525A4.525,4.525,0,0,1,209.844,167.258Z" transform="translate(-187.456 -149.395)"/><path class="f" d="M234.926,194.8a2.066,2.066,0,1,1-2.066-2.066A2.066,2.066,0,0,1,234.926,194.8Z" transform="translate(-214.997 -176.936)"/><path class="g" d="M234.766,197.387a2.066,2.066,0,1,1-2.7-2.7,2.067,2.067,0,0,0,2.7,2.7Z" transform="translate(-214.997 -178.727)"/><path class="b" d="M54.629,60.253H52.6a1.263,1.263,0,0,1-1.264-1.23,1.227,1.227,0,0,1,.477-.972,17.868,17.868,0,0,1-4.176-33.214,18.719,18.719,0,0,0-7.507,15.1c0,8.4,5.86,14.983,13.29,17.21a.654.654,0,0,1,.363.989,1.933,1.933,0,0,0-.38.843,1.253,1.253,0,0,0,1.229,1.275Z" transform="translate(-38.061 -22.801)"/><path class="h" d="M342.042,242.008a.615.615,0,0,1,.869-.869,2.667,2.667,0,0,0,3.767,0,3.9,3.9,0,0,1,5.506,0,.615.615,0,1,1-.869.869,2.667,2.667,0,0,0-3.767,0,3.9,3.9,0,0,1-5.506,0Zm4.636,2.065a2.667,2.667,0,0,1-3.767,0,.615.615,0,0,0-.869.869,3.9,3.9,0,0,0,5.506,0,2.667,2.667,0,0,1,3.767,0,.615.615,0,1,0,.869-.869A3.9,3.9,0,0,0,346.679,244.073Zm0,2.935a2.667,2.667,0,0,1-3.767,0,.615.615,0,0,0-.869.869,3.9,3.9,0,0,0,5.506,0,2.667,2.667,0,0,1,3.767,0,.615.615,0,1,0,.869-.869A3.9,3.9,0,0,0,346.679,247.008Z" transform="translate(-316.962 -220.33)"/></svg>