<svg xmlns="http://www.w3.org/2000/svg" width="32.793" height="33.359" viewBox="0 0 32.793 33.359"><defs><style>.a{fill:#b6a9ed;}.b{fill:#394d5c;}.c{fill:#7d8d9c;}.d{fill:#65589c;}.e{fill:#f4f4e6;}.f{fill:#8475c3;}.g{fill:#ffc12d;}</style></defs><g transform="translate(0 0)"><path class="a" d="M4.131,15H34.663a1.131,1.131,0,0,1,1.131,1.131V35.355H3V16.131A1.131,1.131,0,0,1,4.131,15Z" transform="translate(-3 -7.65)"/><path class="b" d="M3,51H35.794v3.392H3Z" transform="translate(-3 -23.295)"/><path class="c" d="M8,57h5.654v2.262H8Z" transform="translate(-5.173 -25.903)"/><path class="c" d="M46,57h5.654v2.262H46Z" transform="translate(-21.688 -25.903)"/><path class="d" d="M12,19h9.046V37.093H12Z" transform="translate(-6.911 -9.388)"/><path class="e" d="M16,23h4.523v4.523H16Z" transform="translate(-8.65 -11.127)"/><path class="f" d="M28,19h3.392V37.093H28Z" transform="translate(-13.865 -9.388)"/><path class="f" d="M8,22h2.262v2.262H8Z" transform="translate(-5.173 -10.692)"/><path class="f" d="M8,42h2.262v2.262H8Z" transform="translate(-5.173 -19.384)"/><g transform="translate(6.785 11.873)"><path class="g" d="M40.827,23h2.827l-1.7,2.827h2.827l-3.958,5.089V28.089H38Z" transform="translate(-24.996 -23)"/><path class="g" d="M15,34h5.654v1.131H15Z" transform="translate(-15 -27.781)"/><path class="g" d="M15,38h2.262v1.131H15Z" transform="translate(-15 -29.519)"/><path class="g" d="M21,38h2.262v1.131H21Z" transform="translate(-17.608 -29.519)"/></g><path class="e" d="M48.7,44.958H47V43.827h1.131V41h1.131v3.392A.565.565,0,0,1,48.7,44.958Z" transform="translate(-22.122 -18.949)"/><path class="e" d="M43,46h1.131v1.131H43Z" transform="translate(-20.384 -21.122)"/><path class="e" d="M39,46h1.131v1.131H39Z" transform="translate(-18.645 -21.122)"/><path class="c" d="M35,7H45.177V9.262H35Z" transform="translate(-16.907 -4.173)"/><path class="b" d="M37,11h2.262v2.262H37Z" transform="translate(-17.776 -5.911)"/><path class="b" d="M47,11h2.262v2.262H47Z" transform="translate(-22.122 -5.911)"/><path class="d" d="M54.131,6.523H53V5.392h1.131a.565.565,0,0,0,.565-.565V2h1.131V4.827A1.7,1.7,0,0,1,54.131,6.523Z" transform="translate(-24.73 -2)"/><path class="d" d="M34,19H45.308V37.093H34Z" transform="translate(-16.472 -9.388)"/></g></svg>