<svg xmlns="http://www.w3.org/2000/svg" width="43" height="43" viewBox="0 0 43 43"><defs><style>.a{fill:#625a95;}.b{fill:#ffb24d;}</style></defs><g transform="translate(-174 -738)"><rect class="a" width="43" height="43" rx="5" transform="translate(174 738)"/><path class="b" d="M4.5,11.9l1.2,10c0,.3.4.6.7.6H20.6c.3,0,.7-.3.7-.6l1.2-10a.366.366,0,0,0-.4-.4H4.9c-.3,0-.4.1-.4.4Zm-2,.2A2.288,2.288,0,0,1,4.8,9.5H22.1a2.288,2.288,0,0,1,2.3,2.6l-1.2,10a2.791,2.791,0,0,1-2.7,2.4H6.4a2.78,2.78,0,0,1-2.7-2.4l-1.2-10ZM6.5,8a.945.945,0,0,1-1-1,.945.945,0,0,1,1-1h14a.945.945,0,0,1,1,1,.945.945,0,0,1-1,1ZM9,4.5a.945.945,0,0,1-1-1,.945.945,0,0,1,1-1h9a.945.945,0,0,1,1,1,.945.945,0,0,1-1,1Z" transform="translate(182.523 746.5)"/></g></svg>