<svg xmlns="http://www.w3.org/2000/svg" width="179.399" height="104.814" viewBox="0 0 179.399 104.814"><defs><style>.a{fill:#fff;}</style></defs><g transform="translate(-89.671 -135.54)"><rect class="a" width="11.637" height="38.788" transform="translate(125.92 178.443) rotate(-11.812)"/><path class="a" d="M142.142,176.076a5.464,5.464,0,0,1-3.641,2.559,5.79,5.79,0,0,1-4.459-.867,5.662,5.662,0,0,1-1.717-8.06,5.871,5.871,0,0,1,3.784-2.522,5.573,5.573,0,0,1,4.347.823,5.649,5.649,0,0,1,2.508,3.72A5.71,5.71,0,0,1,142.142,176.076Z" transform="translate(-7.787 -5.892)"/><path class="a" d="M265.736,192.3V167.963h-9.512l-17.48,24.691c-.943-2.407-2.935-4.2-5.968-5.366v-.439c3.626-1.789,5.439-4.528,5.439-8.2a9.735,9.735,0,0,0-4.276-8.325,17.035,17.035,0,0,0-10.155-3.049,17.33,17.33,0,0,0-10.8,3.382,10.852,10.852,0,0,0-4.276,6.236,10.207,10.207,0,0,0-3.528-6.472c-2.488-2.1-5.829-3.146-9.992-3.146a20.4,20.4,0,0,0-4.374.447L165.9,139.857a12.917,12.917,0,0,0-9.65-4.317,13.246,13.246,0,0,0-2.642.268l-40.667,8.5a12.964,12.964,0,0,0-9.642,8.626L90.321,192.4a12.929,12.929,0,0,0,2.642,12.667l27.691,30.976a12.951,12.951,0,0,0,9.65,4.309,13.387,13.387,0,0,0,2.65-.268l40.659-8.5a12.962,12.962,0,0,0,9.65-8.626l4.927-14.976h20.577V200.1H190.687a6.348,6.348,0,0,1,.528-1.325A10.258,10.258,0,0,1,195,194.988l7.008-4.642q6.732-4.268,6.87-11H217.7a5.173,5.173,0,0,1,1.951-3.374,5.968,5.968,0,0,1,3.691-1.187,5.689,5.689,0,0,1,3.813,1.276,4.21,4.21,0,0,1,1.488,3.341,4.042,4.042,0,0,1-1.577,3.439,7.006,7.006,0,0,1-4.3,1.179H219.33v6.951h3.691a7.716,7.716,0,0,1,4.691,1.285,4.526,4.526,0,0,1,.138,7.049,6.763,6.763,0,0,1-4.447,1.374c-3.341,0-5.35-1.821-6.065-5.447H207.89a13.62,13.62,0,0,0,4.276,9.756c2.65,2.407,6.415,3.626,11.285,3.626q7.073,0,11.52-3.472a11.041,11.041,0,0,0,4.008-5.667h17.626v8.512h9.13v-8.512h3.333V192.3Zm-73.358-10.073L190.6,187.63l-2.854,1.837a17.394,17.394,0,0,0-6.968,8l-8.024-9.114,5.667-16.122v-.016a2.229,2.229,0,0,1,.4-1.13l.008-.016,1.4-3.976-.431.089c-.065.016-.122.033-.179.049v-.008l-12.837,2.683-4.5,11.48-.683.146-8.789-8.707-12.862,2.683.35.4,14.472,16.431L147.3,213.6l12.984-2.715,4.878-12.667.683-.146,9.244,9.724,4.285-.894v1.089h4.528L179.4,221.7a8.882,8.882,0,0,1-6.618,5.911l-40.667,8.5a8.473,8.473,0,0,1-1.813.187,8.863,8.863,0,0,1-6.618-2.959L112.54,220.858l10.821-2.252L117.3,189.6l8.415-1.756-1.878-8.968-8.415,1.756-.52-2.512q-.927-4.4,3.862-5.4a8.251,8.251,0,0,1,2.179-.211l-.244-8.756a19.971,19.971,0,0,0-6.016.39q-6.39,1.329-9.48,5.472t-1.772,10.5L111.768,220,96,202.353a8.856,8.856,0,0,1-1.813-8.683L107.158,154.2a8.882,8.882,0,0,1,6.618-5.911l40.659-8.5a9.168,9.168,0,0,1,1.821-.187,8.876,8.876,0,0,1,6.618,2.959L186.7,169.215a12.152,12.152,0,0,0-3.341,2.472,14.482,14.482,0,0,0-2.846,4.285,12.464,12.464,0,0,0-1.073,4.61h9.878a5.721,5.721,0,0,1,1.512-3.789,4.511,4.511,0,0,1,1.2-1A8.862,8.862,0,0,1,192.378,182.223Zm5.854-.431a8.388,8.388,0,0,1-1.569,1.813c-.179.138-.374.293-.61.455l.187-.569a12.862,12.862,0,0,0-.008-8.089,4.059,4.059,0,0,1,2.781,3.943A4.505,4.505,0,0,1,198.232,181.792Zm58.374,10.5h-8.5l7.935-11.878h.561Z"/></g></svg>