<svg xmlns="http://www.w3.org/2000/svg" width="43" height="43" viewBox="0 0 43 43"><defs><style>.a{fill:none;}.b{fill:#625a95;}</style></defs><g transform="translate(-285 -691)"><rect class="a" width="43" height="43" rx="5" transform="translate(285 691)"/><path class="b" d="M20.5,20.415a2.219,2.219,0,0,1-2.264,1.7H4.764A2.271,2.271,0,0,1,2.5,19.849v-.566c0-.34.113-.566.113-.906a11.748,11.748,0,0,1,.34-1.358c.679-1.472,5.321-3.283,8.6-3.283a16.967,16.967,0,0,1,5.094,1.019,11.137,11.137,0,0,1,4.528-1.132c2.491,0,5.887,1.472,6.453,2.6a2.841,2.841,0,0,1,.226,1.132c0,.226.113.453.113.679v.453a2.008,2.008,0,0,1-1.925,2.038H20.5v-.113Zm-1.245-4.189a1.9,1.9,0,0,1,.792.906,7.034,7.034,0,0,1,.34,1.132h5.321a.681.681,0,0,0-.113-.453c0-.113,0-.34-.113-.34a.4.4,0,0,0-.226-.113,10.519,10.519,0,0,0-1.132-.566,7.887,7.887,0,0,0-3.057-.679,2.564,2.564,0,0,0-1.811.113Zm1.925-3.736a3.336,3.336,0,0,1-3.4-3.4,3.4,3.4,0,0,1,6.792,0,3.336,3.336,0,0,1-3.4,3.4Zm0-2.264a1.07,1.07,0,0,0,1.132-1.132,1.132,1.132,0,0,0-2.264,0,1.07,1.07,0,0,0,1.132,1.132Zm-9.623,2.151A4.253,4.253,0,0,1,7.368,8.189,4.253,4.253,0,0,1,11.557,4a4.253,4.253,0,0,1,4.189,4.189,4.253,4.253,0,0,1-4.189,4.189Zm0-2.264a1.984,1.984,0,0,0,1.925-1.925,1.984,1.984,0,0,0-1.925-1.925A1.984,1.984,0,0,0,9.632,8.189a1.984,1.984,0,0,0,1.925,1.925Zm6.566,8.038a1.563,1.563,0,0,0-.453-.34c-.453-.226-1.019-.566-1.585-.792A13.1,13.1,0,0,0,11.557,16a11.789,11.789,0,0,0-4.528,1.019c-.566.226-1.132.566-1.585.792a1.563,1.563,0,0,0-.453.34h0a4,4,0,0,0-.113.679c0,.226-.113.566-.113.792v.226H18.236v-.226c0-.226-.113-.566-.113-.792v-.679Z" transform="translate(291.014 699.943)"/></g></svg>